<?xml version="1.0" encoding="utf-8"?>
<!-- Generator: Adobe Illustrator 23.0.1, SVG Export Plug-In . SVG Version: 6.00 Build 0)  -->
<svg version="1.1" id="Capa_1" xmlns="http://www.w3.org/2000/svg" xmlns:xlink="http://www.w3.org/1999/xlink" x="0px" y="0px"
	 viewBox="0 0 195.7 162.3" style="enable-background:new 0 0 195.7 162.3;" xml:space="preserve">
<style type="text/css">
	.st0{fill:#FFFFFF;}
	.st1{fill:#FFE081;}
	.st2{fill:#00CBB4;}
	.st3{fill:#040828;}
</style>
<g>
	<path class="st1" d="M124.6,96.8H107c-4.9,0-8.8,3.9-8.8,8.8v35.2c0,4.9,3.9,8.8,8.8,8.8h17.6c4.9,0,8.8-3.9,8.8-8.8v-35.2
		C133.4,100.7,129.5,96.8,124.6,96.8z"/>
	<rect x="111.4" y="110" class="st1" width="8.8" height="26.4"/>
	<path class="st2" d="M168.7,61.5H151c-4.9,0-8.8,3.9-8.8,8.8v70.5c0,4.9,3.9,8.8,8.8,8.8h17.6c4.9,0,8.8-3.9,8.8-8.8V70.3
		C177.5,65.5,173.5,61.5,168.7,61.5z"/>
	<rect x="151.2" y="74.2" class="st2" width="8.4" height="59.1"/>
	<path class="st2" d="M79.4,65.2H62.6c-4.7,0-8.4,3.8-8.4,8.4v67.6c0,4.7,3.8,8.4,8.4,8.4h16.9c4.7,0,8.4-3.8,8.4-8.4V73.6
		C87.9,69,84.1,65.2,79.4,65.2z"/>
	<rect x="66.8" y="74.2" class="st2" width="8.4" height="59.1"/>
	<path class="st1" d="M36.5,105.6H18.9c-4.9,0-8.8,3.9-8.8,8.8v26.4c0,4.9,3.9,8.8,8.8,8.8h17.6c4.9,0,8.8-3.9,8.8-8.8v-26.4
		C45.3,109.5,41.4,105.6,36.5,105.6z"/>
	<rect x="23.3" y="118.8" class="st1" width="8.8" height="17.6"/>
	<path class="st3" d="M27.7,79.2c7.3,0,13.2-5.9,13.2-13.2c0-1.2-0.2-2.3-0.5-3.4l27.9-27.9c1.1,0.3,2.2,0.5,3.4,0.5
		c1.7,0,3.3-0.3,4.8-0.9l26.3,21c-0.1,0.6-0.2,1.3-0.2,2c0,7.3,5.9,13.2,13.2,13.2S129,64.4,129,57.1c0-0.7-0.1-1.3-0.2-2l26.3-21
		c1.5,0.6,3.1,0.9,4.8,0.9c7.3,0,13.2-5.9,13.2-13.2s-5.9-13.2-13.2-13.2s-13.2,5.9-13.2,13.2c0,0.7,0.1,1.3,0.2,2l-26.3,21
		c-1.5-0.6-3.1-0.9-4.8-0.9s-3.3,0.3-4.8,0.9l-26.2-21c0.1-0.6,0.2-1.3,0.2-2c0-7.3-5.9-13.2-13.2-13.2c-7.3,0-13.2,5.9-13.2,13.2
		c0,1.2,0.2,2.3,0.5,3.4L31.1,53.2c-1.1-0.3-2.2-0.5-3.4-0.5c-7.3,0-13.2,5.9-13.2,13.2S20.4,79.2,27.7,79.2z"/>
</g>
</svg>
